<svg xmlns="http://www.w3.org/2000/svg" width="22" height="22" viewBox="0 0 22 22">
    <g>
        <path fill="none" d="M0 0H22V22H0z"/>
    </g>
    <g>
        <path fill="#a5a5a5" d="M15.444 10.111V3H6.556v3.556H3V19h7.111v-3.556h1.778V19H19v-8.889zm-8.888 7.111H4.778v-1.778h1.778zm0-3.556H4.778v-1.777h1.778zm0-3.556H4.778V8.333h1.778zm3.556 3.556H8.333v-1.777h1.778zm0-3.556H8.333V8.333h1.778zm0-3.556H8.333V4.778h1.778zm3.556 7.111h-1.779v-1.776h1.778zm0-3.556h-1.779V8.333h1.778zm0-3.556h-1.779V4.778h1.778zm3.556 10.667h-1.78v-1.776h1.778zm0-3.556h-1.78v-1.775h1.778z" transform="translate(3 3) translate(-3 -3)"/>
    </g>
</svg>
