<svg xmlns="http://www.w3.org/2000/svg" width="22" height="22" viewBox="0 0 22 22">
    <path fill="none" d="M0 0h22v22H0z"/>
    <path fill="#a5a5a5" d="M13.667 11h1.778A4.446 4.446 0 0 0 11 6.556v1.777A2.663 2.663 0 0 1 13.667 11zm3.556 0H19a8 8 0 0 0-8-8v1.778A6.218 6.218 0 0 1 17.222 11zm.889 3.111a10.1 10.1 0 0 1-3.173-.507.991.991 0 0 0-.276-.044.911.911 0 0 0-.631.258l-1.956 1.956a13.374 13.374 0 0 1-5.858-5.858l1.955-1.965a.853.853 0 0 0 .227-.889 10.1 10.1 0 0 1-.507-3.173A.892.892 0 0 0 7 3H3.889A.892.892 0 0 0 3 3.889 15.11 15.11 0 0 0 18.111 19a.892.892 0 0 0 .889-.889V15a.892.892 0 0 0-.889-.889zM4.8 4.778h1.338a12.254 12.254 0 0 0 .4 2.293L5.471 8.147A13.642 13.642 0 0 1 4.8 4.778zM17.222 17.2a13.246 13.246 0 0 1-3.378-.676l1.067-1.067a11.336 11.336 0 0 0 2.311.4z"/>
</svg>
