<svg xmlns="http://www.w3.org/2000/svg" width="22" height="22" viewBox="0 0 22 22">
    <path fill="none" d="M0 0h22v22H0zm0 0h22v22H0zm0 0h22v22H0zm0 0h22v22H0z"/>
    <path fill="#a5a5a5" d="M11 5.629a8.9 8.9 0 0 1 8.018 4.926 8.657 8.657 0 0 1-2.191 2.794l1.282 1.263A10.571 10.571 0 0 0 21 10.555a10.75 10.75 0 0 0-10-6.717 10.922 10.922 0 0 0-3.309.51l1.5 1.478A9.322 9.322 0 0 1 11 5.629zm-.973 1.021l1.882 1.85a2.255 2.255 0 0 1 1.164 1.15l1.882 1.85a4.132 4.132 0 0 0 .127-.958A4.046 4.046 0 0 0 11 6.525a3.913 3.913 0 0 0-.973.125zM1.918 3.722l2.436 2.4A10.526 10.526 0 0 0 1 10.555a10.817 10.817 0 0 0 13.927 5.982l3.109 3.063 1.282-1.263L3.2 2.45zm6.818 6.717l2.373 2.337a.463.463 0 0 1-.109.018 2.257 2.257 0 0 1-2.273-2.239c0-.045.009-.072.009-.117zM5.645 7.393l1.591 1.568A4.033 4.033 0 0 0 11 14.585a4.157 4.157 0 0 0 1.609-.322l.891.878a9.618 9.618 0 0 1-2.5.34 8.9 8.9 0 0 1-8.018-4.926 8.9 8.9 0 0 1 2.663-3.162z"/>
</svg>
